# xmcd
#
# Track frame offsets:
#	150
#	14555
#	30381
#	46313
#	60094
#	80395
#	94251
#	108853
#	124377
#	140064
#	159088
#	183542
#	198202
#	219895
#	238424
#	259229
#
# Disc length: 3690 seconds
#
# Revision: 0
# Processed by: cddbd v1.5.1PL0 Copyright (c) Steve Scherf et al.
# Submitted via: dBpowerAMP V4.0
#
DISCID=d50e6810
DTITLE=Patricia Costa - Acustico Bahia Vol. 2
DYEAR=2005
DGENRE=Axe Acustico
TTITLE0=Sorte Grande
TTITLE1=Maimbe Danda
TTITLE2=Tote de Maianga
TTITLE3=Mal Acostumada
TTITLE4=Prefixo de Verao
TTITLE5=Nao Tem Lua
TTITLE6=Vem Meu Amor
TTITLE7=Foi Por Esse Amor
TTITLE8=Nayambing Blues
TTITLE9=Lero-Lero
TTITLE10=Na Ilha Grande
TTITLE11=Pega Pega
TTITLE12=Que Bloco E Esse
TTITLE13=Acabou
TTITLE14=Carnaval Mutante
TTITLE15=Carnaval Mutante (Versao Album)
EXTD=
EXTT0=
EXTT1=
EXTT2=
EXTT3=
EXTT4=
EXTT5=
EXTT6=
EXTT7=
EXTT8=
EXTT9=
EXTT10=
EXTT11=
EXTT12=
EXTT13=
EXTT14=
EXTT15=
PLAYORDER=
